<?xml version="1.0" encoding="utf-8"?>
<!-- Generator: Adobe Illustrator 16.0.0, SVG Export Plug-In . SVG Version: 6.00 Build 0)  -->
<!DOCTYPE svg PUBLIC "-//W3C//DTD SVG 1.1//EN" "http://www.w3.org/Graphics/SVG/1.1/DTD/svg11.dtd">
<svg version="1.1" id="Layer_1" xmlns="http://www.w3.org/2000/svg" xmlns:xlink="http://www.w3.org/1999/xlink" x="0px" y="0px"
	 width="120px" height="110px" viewBox="0 0 120 110" enable-background="new 0 0 120 110" xml:space="preserve">
<linearGradient id="SVGID_1_" gradientUnits="userSpaceOnUse" x1="-12.5918" y1="19.165" x2="87.5586" y2="19.165" gradientTransform="matrix(1 0 0 -1 23 83.5)">
	<stop  offset="0" style="stop-color:#FF892B"/>
	<stop  offset="0.5108" style="stop-color:#FFDE1C"/>
	<stop  offset="1" style="stop-color:#FF892B"/>
</linearGradient>
<path fill="url(#SVGID_1_)" d="M110.559,67.928c-9.332-4.268-28.252-7.186-50.076-7.186c-21.823,0-40.743,2.918-50.075,7.186
	c11.055-3.41,29.36-5.24,50.075-5.24C81.198,62.686,99.503,64.518,110.559,67.928"/>
<path fill="#435C91" d="M36.328,60.18V32.084l-4.575,2.794v25.896C33.232,60.561,34.761,60.362,36.328,60.18"/>
<path fill="#03A8DB" d="M36.328,60.18V21.685l9.938-7.203v44.823C42.81,59.521,39.484,59.818,36.328,60.18"/>
<path fill="#88B941" d="M59.99,58.869v-26.77L47.527,21.843V59.23C51.532,59.001,55.702,58.877,59.99,58.869"/>
<path fill="#FFCA05" d="M59.99,58.869V26.363l12.619-8.518v41.34c-3.908-0.205-7.973-0.318-12.146-0.318L59.99,58.869z"/>
<path fill="#F48120" d="M84.745,16.742l-10.94-8.154l0.01,50.687c3.817,0.23,7.477,0.56,10.932,0.967L84.745,16.742L84.745,16.742z"
	/>
<path fill="#CD123C" d="M84.637,60.227V24.3l4.573,3.444v33.074C87.727,60.605,86.202,60.408,84.637,60.227"/>
<g>
	<path d="M34.971,92.133c0.226,0.033,0.429,0.094,0.608,0.18c0.18,0.086,0.335,0.199,0.464,0.336s0.229,0.299,0.297,0.484
		c0.069,0.189,0.103,0.4,0.103,0.643c0,0.172-0.025,0.352-0.075,0.535c-0.05,0.189-0.134,0.373-0.251,0.547
		c-0.116,0.18-0.27,0.342-0.459,0.49s-0.423,0.271-0.706,0.367c-0.216,0.072-0.456,0.123-0.719,0.154
		c-0.263,0.023-0.579,0.041-0.946,0.041h-1.871V88.6h1.804c0.165,0,0.315,0.004,0.451,0.01c0.135,0.006,0.259,0.014,0.373,0.023
		c0.113,0.012,0.218,0.025,0.315,0.041c0.097,0.018,0.188,0.035,0.275,0.057c0.228,0.064,0.433,0.148,0.618,0.256
		c0.186,0.105,0.344,0.234,0.473,0.385c0.129,0.148,0.229,0.32,0.3,0.508c0.071,0.189,0.104,0.395,0.104,0.619
		c0,0.178-0.022,0.35-0.063,0.516c-0.042,0.162-0.11,0.313-0.203,0.451c-0.092,0.135-0.213,0.262-0.36,0.373
		c-0.148,0.107-0.328,0.195-0.538,0.271v0.021h0.006V92.133z M33.666,91.77c0.175,0,0.326-0.01,0.453-0.025
		c0.128-0.018,0.243-0.041,0.345-0.074c0.274-0.092,0.473-0.234,0.598-0.426c0.125-0.193,0.188-0.42,0.188-0.686
		c0-0.27-0.063-0.486-0.196-0.66c-0.132-0.17-0.338-0.297-0.618-0.383c-0.138-0.039-0.298-0.068-0.481-0.084
		c-0.182-0.018-0.396-0.023-0.643-0.023h-1v2.359h1.354V91.77z M32.31,92.57v2.543h1.076c0.254,0,0.491-0.016,0.711-0.039
		c0.217-0.021,0.404-0.061,0.557-0.111c0.167-0.053,0.308-0.123,0.425-0.209c0.117-0.084,0.21-0.18,0.282-0.285
		c0.071-0.102,0.122-0.213,0.153-0.33c0.03-0.113,0.045-0.232,0.045-0.354c0-0.141-0.016-0.27-0.049-0.391
		c-0.033-0.123-0.086-0.232-0.16-0.328c-0.075-0.096-0.174-0.18-0.296-0.254c-0.123-0.074-0.273-0.129-0.456-0.17
		c-0.108-0.023-0.234-0.043-0.374-0.055c-0.141-0.012-0.315-0.02-0.523-0.02H32.31V92.57z"/>
	<path d="M42.404,88.605h-0.77l-2.978,7.311h0.955l0.873-2.201h3.056l0.874,2.201h0.967L42.404,88.605z M40.804,92.91l0.274-0.688
		c0.296-0.742,0.607-1.57,0.934-2.48h0.022c0.31,0.896,0.616,1.725,0.915,2.48l0.277,0.688H40.804z"/>
	<path d="M51.592,92.68c0.448,0.645,0.891,1.309,1.328,1.988h0.032c-0.047-0.711-0.071-1.434-0.071-2.172v-3.891h0.895v7.311h-0.891
		l-2.867-4.074c-0.496-0.711-0.938-1.375-1.328-1.992h-0.033c0.048,0.668,0.073,1.445,0.073,2.334v3.732h-0.891v-7.311h0.886
		L51.592,92.68z"/>
	<path d="M62.73,91.043c-0.104-0.363-0.263-0.695-0.469-0.988c-0.211-0.293-0.474-0.549-0.794-0.762
		c-0.317-0.215-0.688-0.383-1.117-0.504c-0.244-0.068-0.508-0.119-0.792-0.145c-0.285-0.027-0.593-0.041-0.924-0.041h-1.671v7.313
		h1.656c0.331,0,0.639-0.016,0.922-0.043c0.285-0.025,0.548-0.074,0.792-0.146c0.426-0.119,0.798-0.287,1.117-0.51
		c0.318-0.217,0.587-0.475,0.797-0.777c0.214-0.301,0.372-0.637,0.479-1.012c0.105-0.373,0.16-0.773,0.16-1.203
		C62.889,91.803,62.834,91.412,62.73,91.043z M61.536,93.975c-0.31,0.457-0.754,0.777-1.334,0.957
		c-0.22,0.068-0.468,0.115-0.741,0.141c-0.274,0.025-0.582,0.041-0.923,0.041h-0.683v-5.705h0.683c0.341,0,0.649,0.014,0.923,0.035
		c0.272,0.027,0.521,0.074,0.741,0.145c0.581,0.184,1.026,0.496,1.334,0.93c0.312,0.439,0.467,1.006,0.467,1.709
		C62.003,92.938,61.848,93.518,61.536,93.975z"/>
	<path d="M68.632,95.256c0.267,0,0.503-0.027,0.71-0.092c0.204-0.061,0.383-0.148,0.535-0.262s0.281-0.25,0.383-0.408
		c0.102-0.156,0.18-0.332,0.236-0.527c0.035-0.119,0.061-0.252,0.076-0.4c0.014-0.146,0.021-0.287,0.021-0.428v-4.533h0.89v4.512
		c0,0.174-0.008,0.35-0.024,0.533c-0.019,0.188-0.049,0.357-0.088,0.52c-0.07,0.271-0.175,0.52-0.312,0.746
		c-0.14,0.23-0.317,0.432-0.541,0.598c-0.225,0.17-0.49,0.301-0.801,0.395c-0.313,0.096-0.676,0.143-1.096,0.143
		c-0.4,0-0.751-0.043-1.053-0.129c-0.303-0.09-0.563-0.211-0.778-0.367c-0.218-0.154-0.396-0.336-0.533-0.551
		c-0.138-0.213-0.245-0.445-0.323-0.697c-0.055-0.178-0.094-0.375-0.115-0.582c-0.024-0.209-0.036-0.41-0.036-0.605v-4.512h0.89
		v4.533c0,0.164,0.012,0.33,0.035,0.504c0.025,0.174,0.063,0.33,0.111,0.473c0.129,0.355,0.34,0.635,0.636,0.838
		C67.752,95.156,68.143,95.256,68.632,95.256z"/>
	<path d="M78.4,92.68c0.451,0.645,0.893,1.309,1.328,1.988h0.033c-0.048-0.711-0.074-1.434-0.074-2.172v-3.891h0.897v7.311h-0.892
		l-2.867-4.074c-0.494-0.711-0.938-1.375-1.326-1.992h-0.032c0.048,0.668,0.07,1.445,0.07,2.334v3.732H74.65v-7.311h0.885
		L78.4,92.68z"/>
	<path d="M88.557,92.957h-1.666v-0.801h2.557v3.533c-0.078,0.037-0.188,0.078-0.336,0.121c-0.148,0.043-0.316,0.08-0.506,0.121
		c-0.188,0.035-0.395,0.064-0.608,0.086c-0.216,0.023-0.433,0.031-0.642,0.031c-0.629,0-1.182-0.088-1.658-0.254
		c-0.479-0.176-0.883-0.416-1.205-0.732c-0.323-0.311-0.57-0.689-0.737-1.139c-0.168-0.449-0.251-0.945-0.251-1.496
		c0-0.598,0.092-1.141,0.275-1.627c0.182-0.49,0.449-0.906,0.798-1.254c0.348-0.344,0.769-0.611,1.263-0.797
		c0.494-0.189,1.037-0.281,1.631-0.281c0.16,0,0.32,0.006,0.481,0.02c0.157,0.014,0.31,0.029,0.457,0.055
		c0.147,0.023,0.28,0.053,0.405,0.086c0.123,0.031,0.228,0.068,0.312,0.102v0.785c-0.219-0.072-0.469-0.131-0.755-0.182
		c-0.284-0.049-0.568-0.072-0.852-0.072c-0.418,0-0.812,0.063-1.191,0.188c-0.376,0.127-0.708,0.316-0.996,0.57
		c-0.286,0.256-0.518,0.574-0.688,0.959c-0.172,0.383-0.258,0.836-0.258,1.354c0,0.506,0.072,0.939,0.215,1.309
		c0.141,0.371,0.342,0.672,0.604,0.914c0.257,0.238,0.574,0.42,0.945,0.533c0.369,0.111,0.781,0.168,1.236,0.168
		c0.211,0,0.418-0.008,0.623-0.027c0.204-0.02,0.387-0.055,0.547-0.092V92.957L88.557,92.957z"/>
</g>
<g>
	<path d="M8.077,82.486c-1.261,0-2.343-0.342-2.985-0.783l0.642-1.563c0.4,0.322,1.141,0.623,2.023,0.623
		c1.001,0,1.662-0.643,1.662-1.521c0-0.926-0.481-1.363-1.583-1.783c-2.043-0.781-2.463-1.904-2.463-3.027
		c0-1.723,1.363-3.125,3.427-3.125c1.202,0,2.104,0.303,2.805,0.76l-0.602,1.428c-0.32-0.264-0.962-0.605-1.723-0.605
		c-1.001,0-1.542,0.666-1.542,1.428c0,0.879,0.661,1.32,1.603,1.699c2.104,0.844,2.584,1.924,2.584,3.188
		C11.924,80.961,10.441,82.486,8.077,82.486z"/>
	<path d="M18.256,82.523c-2.886,0-4.188-1.264-4.188-3.646v-7.371h2.444v7.514c0,1.021,0.561,1.822,1.823,1.822
		c0.701,0,1.202-0.119,1.623-0.361v-8.975h2.443v10.156C21.501,82.145,20.139,82.523,18.256,82.523z"/>
	<path d="M37.148,82.305v-7.672c0-0.941-0.521-1.766-1.823-1.766c-0.743,0-1.302,0.24-1.802,0.74v8.697h-2.445v-7.732
		c0-1.045-0.702-1.723-2.024-1.723c-0.721,0-1.122,0.098-1.603,0.299v9.156h-2.444V72.088c1.083-0.521,2.244-0.783,4.046-0.783
		c1.743,0,2.745,0.502,3.366,1.186c0.722-0.66,1.822-1.186,3.466-1.186c2.564,0,3.707,1.604,3.707,3.309v7.691H37.148z"/>
	<path d="M54.341,82.305v-7.672c0-0.941-0.521-1.766-1.823-1.766c-0.741,0-1.304,0.24-1.804,0.74v8.697h-2.445v-7.732
		c0-1.045-0.701-1.723-2.024-1.723c-0.721,0-1.121,0.098-1.602,0.299v9.156h-2.444V72.088c1.082-0.521,2.245-0.783,4.046-0.783
		c1.744,0,2.745,0.502,3.367,1.186c0.721-0.66,1.823-1.186,3.465-1.186c2.566,0,3.707,1.604,3.707,3.309v7.691H54.341z"/>
	<path d="M63.195,71.305c-1.702,0-3.004,0.482-3.705,0.824l0.56,1.396c0.662-0.318,1.663-0.658,2.706-0.658
		c1.262,0,2.145,0.381,2.145,1.781v0.582c-3.285,0.32-6.029,1.143-6.029,3.988c0,2.084,1.46,3.285,4.404,3.285
		c1.686,0,3.048-0.32,3.908-0.783v-6.689C67.184,72.246,65.422,71.305,63.195,71.305z M64.9,80.842
		c-0.36,0.18-0.901,0.299-1.465,0.299c-1.422,0-2.265-0.6-2.265-2.002c0-1.963,1.427-2.463,3.729-2.744l0,0V80.842z"/>
	<path d="M74.516,73.107c-0.818-0.279-1.723-0.238-2.281,0.08v9.117H69.79V72.086c1.123-0.539,2.483-0.84,5.207-0.762L74.516,73.107
		z"/>
	<path d="M81.471,80.801c-1.785,0-2.746-1-2.947-3.002l6.613-0.963c0.098-3.627-1.464-5.531-4.328-5.531
		c-2.824,0-4.608,2.047-4.608,5.572c0,3.643,1.94,5.631,5.009,5.631c1.643,0,2.807-0.342,3.566-0.762l-0.582-1.545
		C83.611,80.502,82.711,80.801,81.471,80.801z M80.729,72.809c1.342,0,2.123,0.879,2.123,3.063l-4.469,0.682
		C78.325,73.969,79.307,72.809,80.729,72.809z"/>
	<path d="M91.229,82.506c-2.467,0-4.269-2.066-4.269-5.631c0-3.586,1.882-5.57,4.288-5.57c1.32,0,2.102,0.4,2.504,0.74L93.23,73.43
		c-0.301-0.242-0.74-0.461-1.44-0.461c-1.662,0-2.365,1.502-2.365,3.865c0,2.385,0.821,3.908,2.324,3.908
		c0.661,0,1.122-0.199,1.464-0.48l0.561,1.502C93.331,82.164,92.529,82.506,91.229,82.506z"/>
	<path d="M99.784,71.305c-3.028,0-4.493,2.383-4.493,5.609c0,3.188,1.465,5.592,4.493,5.592c3.022,0,4.485-2.404,4.485-5.592
		C104.27,73.688,102.827,71.305,99.784,71.305z M99.784,80.842c-1.687,0-2.063-1.902-2.063-3.947c0-2.063,0.338-4.047,2.063-4.047
		c1.739,0,2.062,1.982,2.062,4.047C101.846,78.939,101.523,80.842,99.784,80.842z"/>
	<path d="M112.545,82.305V74.65c0-0.883-0.4-1.801-1.943-1.801c-0.803,0-1.221,0.121-1.683,0.299v9.156h-2.444V72.088
		c1.021-0.48,2.403-0.783,4.229-0.783c3.227,0,4.285,1.563,4.285,3.309v7.691H112.545z"/>
</g>
<linearGradient id="SVGID_2_" gradientUnits="userSpaceOnUse" x1="21.7051" y1="65.3076" x2="21.7051" y2="41.6993" gradientTransform="matrix(1 0 0 -1 23 83.5)">
	<stop  offset="0" style="stop-color:#FFFFFF;stop-opacity:0"/>
	<stop  offset="1" style="stop-color:#000000"/>
</linearGradient>
<path opacity="0.1" fill="url(#SVGID_2_)" enable-background="new    " d="M43.142,59.54c1.037-0.082,2.061-0.169,3.125-0.235
	V14.482l-3.125,2.264V59.54z"/>
<linearGradient id="SVGID_3_" gradientUnits="userSpaceOnUse" x1="26.0894" y1="68.8691" x2="26.0894" y2="31.4814" gradientTransform="matrix(1 0 0 -1 23 83.5)">
	<stop  offset="0" style="stop-color:#FFFFFF;stop-opacity:0"/>
	<stop  offset="1" style="stop-color:#000000"/>
</linearGradient>
<path opacity="0.15" fill="url(#SVGID_3_)" enable-background="new    " d="M50.651,24.414l-3.124-2.571V59.23
	c1.021-0.059,2.082-0.09,3.124-0.135V24.414z"/>
<linearGradient id="SVGID_4_" gradientUnits="userSpaceOnUse" x1="48.0469" y1="75.9033" x2="48.0469" y2="34.5625" gradientTransform="matrix(1 0 0 -1 23 83.5)">
	<stop  offset="0" style="stop-color:#FFFFFF;stop-opacity:0"/>
	<stop  offset="1" style="stop-color:#000000"/>
</linearGradient>
<path opacity="0.15" fill="url(#SVGID_4_)" enable-background="new    " d="M69.484,59.061c1.043,0.043,2.104,0.07,3.125,0.125
	v-41.34l-3.125,2.109V59.061z"/>
<linearGradient id="SVGID_5_" gradientUnits="userSpaceOnUse" x1="52.3672" y1="84.0205" x2="52.3672" y2="33.1172" gradientTransform="matrix(1 0 0 -1 23 83.5)">
	<stop  offset="0" style="stop-color:#FFFFFF;stop-opacity:0"/>
	<stop  offset="1" style="stop-color:#000000"/>
</linearGradient>
<path opacity="0.15" fill="url(#SVGID_5_)" enable-background="new    " d="M76.93,59.491V10.916l-3.125-2.328l0.01,50.687
	C74.865,59.34,75.902,59.412,76.93,59.491z"/>
</svg>
